HIERARCHY
ROOT Hips
{
	OFFSET 0.00 0.00 0.00
	CHANNELS 6 Xposition Yposition Zposition Yrotation Xrotation Zrotation
	JOINT Spine
	{
		OFFSET	0.0000	9.2263	1.5771
		CHANNELS 3 Xrotation Yrotation Zrotation
		JOINT Spine1
		{
			OFFSET	0.0000	16.2540	-0.1656
			CHANNELS 3 Xrotation Yrotation Zrotation
			JOINT Spine2
			{
				OFFSET	0.0000	13.6396	-1.2923
				CHANNELS 3 Xrotation Yrotation Zrotation
				JOINT Neck
				{
					OFFSET	0.0000	13.8774	-4.3542
					CHANNELS 3 Xrotation Yrotation Zrotation
					JOINT Neck1
					{
						OFFSET	0.0000	4.3400	0.9269
						CHANNELS 3 Xrotation Yrotation Zrotation
						JOINT Head
						{
							OFFSET	0.0000	4.0266	0.8585
							CHANNELS 3 Xrotation Yrotation Zrotation
							End Site
							{
								OFFSET 0.0000 23.0297 0.1231
							}
						}
					}
				}
				JOINT LeftShoulder
				{
					OFFSET	6.1442	10.1870	-3.7932
					CHANNELS 3 Zrotation Xrotation Yrotation
					JOINT LeftArm
					{
						OFFSET	12.3191	-1.1130	-1.7935
						CHANNELS 3 Zrotation Xrotation Yrotation
						JOINT LeftForeArm
						{
							OFFSET	27.6870	0.0000	0.0000
							CHANNELS 3 Xrotation Zrotation Yrotation
							JOINT LeftHand
							{
								OFFSET	27.8738	0.0000	0.0000
								CHANNELS 3 Zrotation Yrotation Xrotation
								JOINT LeftHandThumb1
								{
									OFFSET	2.3785	-1.0029	2.6209
									CHANNELS 3 Zrotation Xrotation Yrotation
									JOINT LeftHandThumb2
									{
										OFFSET	3.3624	-1.0029	2.8398
										CHANNELS 3 Zrotation Xrotation Yrotation
										JOINT LeftHandThumb3
										{
											OFFSET	4.5018	-1.3445	2.1783
											CHANNELS 3 Zrotation Xrotation Yrotation
											End Site
											{
												OFFSET 2.6000 -1.0000 1.0000
											}
										}
									}
								}
								JOINT LeftHandMiddle1
								{
									OFFSET	10.4639	0.6148	0.4298
									CHANNELS 3 Zrotation Xrotation Yrotation
									JOINT LeftHandMiddle2
									{
										OFFSET	5.7921	0.0000	0.0000
										CHANNELS 3 Zrotation Xrotation Yrotation
										JOINT LeftHandMiddle3
										{
											OFFSET	3.7132	0.0000	0.0000
											CHANNELS 3 Zrotation Xrotation Yrotation
											End Site
											{
												OFFSET 2.3000 0.0000 0.0000
											}
										}
									}
								}
								JOINT LeftHandIndex1
								{
									OFFSET	10.3945	0.6148	2.7055
									CHANNELS 3 Zrotation Xrotation Yrotation
									JOINT LeftHandIndex2
									{
										OFFSET	5.5493	0.0000	0.0000
										CHANNELS 3 Zrotation Xrotation Yrotation
										JOINT LeftHandIndex3
										{
											OFFSET	3.3911	0.0000	0.0000
											CHANNELS 3 Zrotation Xrotation Yrotation
											End Site
											{
												OFFSET 2.5000 0.0000 0.0000
											}
										}
									}
								}
								JOINT LeftHandRing1
								{
									OFFSET	10.3252	0.3211	-1.8755
									CHANNELS 3 Zrotation Xrotation Yrotation
									JOINT LeftHandRing2
									{
										OFFSET	5.4452	0.0000	0.0000
										CHANNELS 3 Zrotation Xrotation Yrotation
										JOINT LeftHandRing3
										{
											OFFSET	3.7132	0.0000	0.0000
											CHANNELS 3 Zrotation Xrotation Yrotation
											End Site
											{
												OFFSET 2.0000 0.0000 0.0000
											}
										}
									}
								}
								JOINT LeftHandPinky1
								{
									OFFSET	10.0130	-0.0783	-3.9671
									CHANNELS 3 Zrotation Xrotation Yrotation
									JOINT LeftHandPinky2
									{
										OFFSET	3.6763	0.0000	0.0000
										CHANNELS 3 Zrotation Xrotation Yrotation
										JOINT LeftHandPinky3
										{
											OFFSET	2.8113	0.0000	0.0000
											CHANNELS 3 Zrotation Xrotation Yrotation
											End Site
											{
												OFFSET 2.9000 0.0000 0.0000
											}
										}
									}
								}
							}
						}
					}
				}
				JOINT RightShoulder
				{
					OFFSET	-6.1402	10.1870	-3.7932
					CHANNELS 3 Zrotation Xrotation Yrotation
					JOINT RightArm
					{
						OFFSET	-12.3231	-1.1130	-1.7935
						CHANNELS 3 Zrotation Xrotation Yrotation
						JOINT RightForeArm
						{
							OFFSET	-27.6870	0.0000	0.0000
							CHANNELS 3 Xrotation Zrotation Yrotation
							JOINT RightHand
							{
								OFFSET	-27.8738	0.0000	0.0000
								CHANNELS 3 Zrotation Yrotation Xrotation
								JOINT RightHandThumb1
								{
									OFFSET	-2.5178	-0.9367	2.5137
									CHANNELS 3 Zrotation Xrotation Yrotation
									JOINT RightHandThumb2
									{
										OFFSET	-3.2638	-1.0870	2.9669
										CHANNELS 3 Zrotation Xrotation Yrotation
										JOINT RightHandThumb3
										{
											OFFSET	-4.4165	-1.3703	2.1350
											CHANNELS 3 Zrotation Xrotation Yrotation
											End Site
											{
												OFFSET -2.6000 -1.0000 1.0000
											}
										}
									}
								}
								JOINT RightHandIndex1
								{
									OFFSET	-10.4665	0.4896	2.7120
									CHANNELS 3 Zrotation Xrotation Yrotation
									JOINT RightHandIndex2
									{
										OFFSET	-5.3768	0.0000	0.0000
										CHANNELS 3 Zrotation Xrotation Yrotation
										JOINT RightHandIndex3
										{
											OFFSET	-3.3855	0.0000	0.0000
											CHANNELS 3 Zrotation Xrotation Yrotation
											End Site
											{
												OFFSET -2.6000 0.0000 0.0000
											}
										}
									}
								}
								JOINT RightHandMiddle1
								{
									OFFSET	-10.7596	0.4896	0.4278
									CHANNELS 3 Zrotation Xrotation Yrotation
									JOINT RightHandMiddle2
									{
										OFFSET	-5.6168	0.0000	0.0000
										CHANNELS 3 Zrotation Xrotation Yrotation
										JOINT RightHandMiddle3
										{
											OFFSET	-3.7364	0.0000	0.0000
											CHANNELS 3 Zrotation Xrotation Yrotation
											End Site
											{
												OFFSET -2.3000 0.0000 0.0000
											}
										}
									}
								}
								JOINT RightHandRing1
								{
									OFFSET	-10.4702	0.3879	-1.9363
									CHANNELS 3 Zrotation Xrotation Yrotation
									JOINT RightHandRing2
									{
										OFFSET	-5.4013	0.0000	0.0000
										CHANNELS 3 Zrotation Xrotation Yrotation
										JOINT RightHandRing3
										{
											OFFSET	-3.3916	0.0000	0.0000
											CHANNELS 3 Zrotation Xrotation Yrotation
											End Site
											{
												OFFSET -2.2000 0.0000 0.0000
											}
										}
									}
								}
								JOINT RightHandPinky1
								{
									OFFSET	-9.9715	-0.1191	-3.9540
									CHANNELS 3 Zrotation Xrotation Yrotation
									JOINT RightHandPinky2
									{
										OFFSET	-3.6528	0.0000	0.0000
										CHANNELS 3 Zrotation Xrotation Yrotation
										JOINT RightHandPinky3
										{
											OFFSET	-2.7820	0.0000	0.0000
											CHANNELS 3 Zrotation Xrotation Yrotation
											End Site
											{
												OFFSET -2.9000 0.0000 0.0000
											}
										}
									}
								}
							}
						}
					}
				}
			}
		}
	}
	JOINT LeftUpLeg
	{
		OFFSET	9.6338	-3.2733	0.0000
		CHANNELS 3 Xrotation Yrotation Zrotation
		JOINT LeftLeg
		{
			OFFSET	0.0000	-41.7300	-1.7300
			CHANNELS 3 Xrotation Yrotation Zrotation
			JOINT LeftFoot
			{
				OFFSET	0.0126	-39.1900	-0.8477
				CHANNELS 3 Xrotation Yrotation Zrotation
				JOINT LeftToeBase
				{
					OFFSET	-0.1833	-12.1931	8.2823
					CHANNELS 3 Xrotation Yrotation Zrotation
					End Site
					{
						OFFSET 0.0000 0.0000 10.1681
					}
				}
			}
		}
	}
	JOINT RightUpLeg
	{
		OFFSET	-9.6338	-3.2733	0.0000
		CHANNELS 3 Xrotation Yrotation Zrotation
		JOINT RightLeg
		{
			OFFSET	0.0000	-41.7300	-1.7300
			CHANNELS 3 Xrotation Yrotation Zrotation
			JOINT RightFoot
			{
				OFFSET	0.0126	-39.1900	-0.8477
				CHANNELS 3 Xrotation Yrotation Zrotation
				JOINT RightToeBase
				{
					OFFSET	-0.1833	-12.1931	8.2823
					CHANNELS 3 Xrotation Yrotation Zrotation
					End Site
					{
						OFFSET 0.0032 0.0000 10.1681
					}
				}
			}
		}
	}
}
MOTION
Frames: 4
Frame Time: 0.0333333
-0.1635 94.3123 0.1327 2.5581 -2.3875 -2.0210 14.3191 1.0913 2.4945 -4.3440 0.8443 -0.9325 -4.3291 0.7720 -1.0301 -0.0990 -1.6899 2.6228 -0.0000 0.0000 -0.0000 -5.8403 -0.4607 -1.5400 -1.3413 2.3091 2.6542 -73.4383 6.8405 -5.7668 13.6634 -8.8589 -10.6498 8.4608 4.6194 5.6991 2.7008 0.6038 20.4827 0.6806 -1.8277 -4.3878 4.7145 -0.2646 4.6497 -24.6647 3.8111 -10.1219 -24.5390 0.5295 -2.4425 -24.4099 0.5247 -2.4288 -20.8370 4.3644 -10.0750 -22.0683 0.3779 -2.1722 -21.9511 0.4259 -2.1755 -29.5768 4.0319 -11.4909 -27.9481 0.6854 -2.7545 -27.7741 0.6715 -2.7465 -34.2269 4.2169 -13.1299 -31.2029 0.8429 -3.0536 -30.9913 0.8342 -3.0308 4.4010 3.4686 -0.0300 67.7832 23.6800 10.7336 8.4197 4.4504 19.9090 -8.6879 -4.6942 -14.8611 4.0742 3.9766 -29.0051 -0.2673 -1.3586 3.5552 -3.1361 -3.0403 4.2625 20.3114 2.4843 5.0223 19.8445 0.2244 1.5479 19.7085 0.2664 1.5562 22.5609 2.0642 6.1723 21.3833 0.3227 1.7075 21.2416 0.3100 1.6927 26.3770 2.3114 8.1028 24.0803 0.4059 1.9033 23.9003 0.3946 1.8912 30.3258 2.6300 10.4563 26.9003 0.5046 2.1104 26.6902 0.4971 2.0951 -29.3576 4.3094 5.5647 65.0554 1.6009 0.5185 -6.5545 0.6878 -7.5165 0.9686 -0.0000 -0.0000 -9.5857 -4.7641 5.8936 29.6194 6.9570 0.9281 -14.6330 1.6971 -9.6572 0.8714 -0.0000 0.0000 
-0.7302 94.2806 3.5738 1.4418 -1.9666 -1.5297 13.4119 1.4092 2.5550 -4.2564 1.4165 -1.6601 -4.2130 1.3091 -1.7886 0.6380 -1.9368 3.8453 -0.0000 0.0000 -0.0000 -6.6550 -0.0841 -2.6146 -1.6108 2.2075 3.6663 -72.2807 5.7888 -8.0934 14.5469 -9.3342 -10.2576 8.2661 4.2287 6.7367 2.6464 0.6256 20.4332 0.6716 -1.8002 -4.3363 4.7260 -0.2980 4.5509 -24.5189 3.7880 -10.0728 -24.5251 0.5289 -2.4413 -24.2965 0.5197 -2.4189 -20.7172 4.3367 -10.0439 -21.9517 0.3735 -2.1611 -21.8371 0.4212 -2.1648 -29.4198 4.0076 -11.3925 -27.9281 0.6845 -2.7529 -27.7282 0.6689 -2.7426 -34.0831 4.1807 -12.9851 -31.1188 0.8384 -3.0465 -30.9863 0.8339 -3.0303 4.5575 3.4634 -0.2236 67.3864 25.9212 11.0770 7.6857 2.8938 21.1503 -9.5215 -5.0558 -15.3236 4.0820 3.9667 -29.0444 -0.2673 -1.3586 3.5552 -3.1316 -3.0501 4.3006 20.3114 2.4843 5.0223 19.8446 0.2244 1.5479 19.7085 0.2664 1.5562 22.5609 2.0643 6.1723 21.3833 0.3227 1.7076 21.2416 0.3100 1.6927 26.3770 2.3114 8.1029 24.0804 0.4059 1.9033 23.8863 0.3940 1.8902 30.3257 2.6300 10.4563 26.9003 0.5045 2.1104 26.6902 0.4971 2.0952 -31.3327 6.8705 3.8229 56.1187 1.8339 0.6181 -5.3387 0.0442 -10.3897 0.0037 -1.6201 3.0224 -6.8717 -4.8078 5.6096 28.1242 8.4061 1.3143 -16.0183 2.0349 -10.6600 1.0024 -0.2024 0.3571 
-1.3145 94.1683 6.9783 0.3391 -1.9276 -1.6013 13.4879 1.7423 2.8817 -4.5366 1.8302 -2.0705 -4.4625 1.6990 -2.2373 1.2458 -2.1688 4.5098 -0.0000 0.0000 -0.0000 -7.3143 0.1087 -3.5608 -1.8843 2.0990 4.7457 -71.9914 4.6712 -11.0740 14.2992 -10.6351 -7.4770 8.7341 2.2734 6.9777 2.4902 0.6886 20.2911 0.6455 -1.7206 -4.1876 4.7558 -0.4029 4.2689 -24.0993 3.7212 -9.9309 -24.4865 0.5257 -2.4329 -23.9702 0.5053 -2.3904 -20.3713 4.2613 -9.9520 -21.6166 0.3610 -2.1293 -21.5090 0.4080 -2.1338 -28.9675 3.9372 -11.1081 -27.8717 0.6820 -2.7480 -27.5971 0.6583 -2.7215 -33.6694 4.0759 -12.5671 -30.8774 0.8258 -3.0263 -30.9666 0.8329 -3.0287 4.3981 3.4469 0.3655 67.2312 25.8564 11.1038 6.2780 2.3442 22.7335 -11.6246 -4.8603 -14.1179 4.1055 3.9440 -29.1368 -0.2673 -1.3586 3.5552 -3.1197 -3.0760 4.3888 20.3114 2.4842 5.0223 19.8445 0.2244 1.5479 19.7085 0.2664 1.5562 22.5609 2.0642 6.1723 21.3834 0.3226 1.7076 21.2416 0.3100 1.6927 26.3770 2.3114 8.1029 24.0804 0.4059 1.9033 23.8537 0.3927 1.8880 30.3257 2.6300 10.4563 26.9004 0.5046 2.1105 26.6901 0.4971 2.0951 -31.6366 7.9389 2.2169 44.5237 3.0096 0.7589 -1.2958 -1.5973 -13.1806 0.4443 -6.1139 5.1176 -3.1967 -4.8987 5.8736 25.4847 9.9539 1.6630 -16.8035 2.3028 -11.5593 1.1422 -0.4180 0.7077 
-1.9106 93.9463 10.4339 -0.7374 -2.0134 -1.8720 13.6780 1.9056 3.0314 -4.6268 1.8815 -2.0403 -4.5424 1.7613 -2.2192 0.7179 -2.1004 4.5473 -0.0000 0.0000 -0.0000 -7.0554 0.6344 -4.9336 -2.1271 2.0036 5.7184 -72.0351 3.7942 -13.5990 13.8119 -11.7021 -5.0596 9.2988 0.3541 7.0470 2.2431 0.7904 20.0657 0.6041 -1.5924 -3.9513 4.8025 -0.5704 3.8223 -23.4328 3.6149 -9.7035 -24.4270 0.5212 -2.4132 -23.4518 0.4827 -2.3448 -19.8211 4.1415 -9.8046 -21.0851 0.3414 -2.0787 -20.9881 0.3874 -2.0845 -28.2487 3.8244 -10.6532 -27.7835 0.6781 -2.7405 -27.3885 0.6415 -2.6877 -33.0121 3.9076 -11.9001 -30.4954 0.8059 -2.9941 -30.9341 0.8311 -3.0260 3.8304 3.4165 1.6782 66.8934 24.3187 11.7467 5.2619 2.1396 24.4475 -13.0229 -4.4217 -12.0619 4.1322 3.9179 -29.2424 -0.2672 -1.3586 3.5552 -3.1046 -3.1082 4.4887 20.3114 2.4843 5.0222 19.8445 0.2244 1.5479 19.7085 0.2664 1.5562 22.5609 2.0642 6.1723 21.3833 0.3227 1.7075 21.2416 0.3100 1.6927 26.3769 2.3114 8.1028 24.0804 0.4059 1.9033 23.8165 0.3911 1.8855 30.3257 2.6300 10.4563 26.9004 0.5046 2.1104 26.6901 0.4971 2.0951 -31.5861 9.1089 0.8367 33.9499 3.2679 0.8267 1.9727 -2.4948 -13.7178 0.8689 -7.8379 6.2804 0.8370 -4.8444 6.3418 22.4236 11.3782 1.9261 -17.3049 2.5079 -12.2448 1.2380 -0.5680 1.0912 
